<mxfile host="app.diagrams.net" modified="2023-11-17T08:00:02.490Z" agent="Mozilla/5.0 (Windows NT 10.0; Win64; x64) AppleWebKit/537.36 (KHTML, like Gecko) Chrome/119.0.0.0 Safari/537.36 Edg/119.0.0.0" etag="-P6oPPtU05Is04ELVFfP" version="22.1.2" type="github">
  <diagram name="第 1 页" id="HPd-xhDoHa7f2T3bDaUs">
    <mxGraphModel dx="1426" dy="793" grid="1" gridSize="10" guides="1" tooltips="1" connect="1" arrows="1" fold="1" page="1" pageScale="1" pageWidth="827" pageHeight="1169" math="0" shadow="0">
      <root>
        <mxCell id="0" />
        <mxCell id="1" parent="0" />
        <mxCell id="_4P22AkJgQgEA9WmZPEW-8" style="edgeStyle=orthogonalEdgeStyle;rounded=0;orthogonalLoop=1;jettySize=auto;html=1;entryX=0.5;entryY=0;entryDx=0;entryDy=0;" edge="1" parent="1" source="_4P22AkJgQgEA9WmZPEW-1" target="_4P22AkJgQgEA9WmZPEW-2">
          <mxGeometry relative="1" as="geometry" />
        </mxCell>
        <mxCell id="_4P22AkJgQgEA9WmZPEW-1" value="&lt;p class=&quot;MsoNormal&quot;&gt;&lt;font face=&quot;宋体&quot;&gt;测量土壤电阻率&lt;/font&gt;&lt;/p&gt;" style="rounded=1;whiteSpace=wrap;html=1;imageHeight=20;" vertex="1" parent="1">
          <mxGeometry x="294" y="490" width="120" height="30" as="geometry" />
        </mxCell>
        <mxCell id="_4P22AkJgQgEA9WmZPEW-9" style="edgeStyle=orthogonalEdgeStyle;rounded=0;orthogonalLoop=1;jettySize=auto;html=1;entryX=0.5;entryY=0;entryDx=0;entryDy=0;" edge="1" parent="1" source="_4P22AkJgQgEA9WmZPEW-2" target="_4P22AkJgQgEA9WmZPEW-3">
          <mxGeometry relative="1" as="geometry" />
        </mxCell>
        <mxCell id="_4P22AkJgQgEA9WmZPEW-2" value="&lt;p class=&quot;MsoNormal&quot;&gt;&lt;font face=&quot;宋体&quot;&gt;设计接地装置&lt;/font&gt;&lt;/p&gt;" style="rounded=1;whiteSpace=wrap;html=1;" vertex="1" parent="1">
          <mxGeometry x="294" y="540" width="120" height="30" as="geometry" />
        </mxCell>
        <mxCell id="_4P22AkJgQgEA9WmZPEW-10" style="edgeStyle=orthogonalEdgeStyle;rounded=0;orthogonalLoop=1;jettySize=auto;html=1;entryX=0.5;entryY=0;entryDx=0;entryDy=0;" edge="1" parent="1" source="_4P22AkJgQgEA9WmZPEW-3" target="_4P22AkJgQgEA9WmZPEW-4">
          <mxGeometry relative="1" as="geometry" />
        </mxCell>
        <mxCell id="_4P22AkJgQgEA9WmZPEW-3" value="&lt;p class=&quot;MsoNormal&quot;&gt;&lt;font face=&quot;宋体&quot;&gt;制作复合接地模块&lt;/font&gt;&lt;/p&gt;" style="rounded=1;whiteSpace=wrap;html=1;" vertex="1" parent="1">
          <mxGeometry x="294" y="590" width="120" height="30" as="geometry" />
        </mxCell>
        <mxCell id="_4P22AkJgQgEA9WmZPEW-11" style="edgeStyle=orthogonalEdgeStyle;rounded=0;orthogonalLoop=1;jettySize=auto;html=1;entryX=0.5;entryY=0;entryDx=0;entryDy=0;" edge="1" parent="1" source="_4P22AkJgQgEA9WmZPEW-4" target="_4P22AkJgQgEA9WmZPEW-5">
          <mxGeometry relative="1" as="geometry" />
        </mxCell>
        <mxCell id="_4P22AkJgQgEA9WmZPEW-4" value="&lt;p class=&quot;MsoNormal&quot;&gt;&lt;font face=&quot;宋体&quot;&gt;安装接地装置&lt;/font&gt;&lt;/p&gt;" style="rounded=1;whiteSpace=wrap;html=1;" vertex="1" parent="1">
          <mxGeometry x="294" y="640" width="120" height="30" as="geometry" />
        </mxCell>
        <mxCell id="_4P22AkJgQgEA9WmZPEW-12" style="edgeStyle=orthogonalEdgeStyle;rounded=0;orthogonalLoop=1;jettySize=auto;html=1;entryX=0.5;entryY=0;entryDx=0;entryDy=0;" edge="1" parent="1" source="_4P22AkJgQgEA9WmZPEW-5" target="_4P22AkJgQgEA9WmZPEW-6">
          <mxGeometry relative="1" as="geometry" />
        </mxCell>
        <mxCell id="_4P22AkJgQgEA9WmZPEW-5" value="&lt;p class=&quot;MsoNormal&quot;&gt;&lt;font face=&quot;宋体&quot;&gt;施用降阻剂&lt;/font&gt;&lt;/p&gt;" style="rounded=1;whiteSpace=wrap;html=1;" vertex="1" parent="1">
          <mxGeometry x="294" y="690" width="120" height="30" as="geometry" />
        </mxCell>
        <mxCell id="_4P22AkJgQgEA9WmZPEW-13" style="edgeStyle=orthogonalEdgeStyle;rounded=0;orthogonalLoop=1;jettySize=auto;html=1;entryX=0.5;entryY=0;entryDx=0;entryDy=0;" edge="1" parent="1" source="_4P22AkJgQgEA9WmZPEW-6" target="_4P22AkJgQgEA9WmZPEW-7">
          <mxGeometry relative="1" as="geometry" />
        </mxCell>
        <mxCell id="_4P22AkJgQgEA9WmZPEW-6" value="&lt;p class=&quot;MsoNormal&quot;&gt;&lt;font face=&quot;宋体&quot;&gt;换土埋土&lt;/font&gt;&lt;/p&gt;" style="rounded=1;whiteSpace=wrap;html=1;" vertex="1" parent="1">
          <mxGeometry x="294" y="740" width="120" height="30" as="geometry" />
        </mxCell>
        <mxCell id="_4P22AkJgQgEA9WmZPEW-15" style="edgeStyle=orthogonalEdgeStyle;rounded=0;orthogonalLoop=1;jettySize=auto;html=1;entryX=0.5;entryY=0;entryDx=0;entryDy=0;" edge="1" parent="1" source="_4P22AkJgQgEA9WmZPEW-7" target="_4P22AkJgQgEA9WmZPEW-14">
          <mxGeometry relative="1" as="geometry" />
        </mxCell>
        <mxCell id="_4P22AkJgQgEA9WmZPEW-7" value="&lt;p class=&quot;MsoNormal&quot;&gt;&lt;font face=&quot;宋体&quot;&gt;测试验收&lt;/font&gt;&lt;/p&gt;" style="rounded=1;whiteSpace=wrap;html=1;" vertex="1" parent="1">
          <mxGeometry x="294" y="790" width="120" height="30" as="geometry" />
        </mxCell>
        <mxCell id="_4P22AkJgQgEA9WmZPEW-14" value="&lt;p class=&quot;MsoNormal&quot;&gt;&lt;font face=&quot;宋体&quot;&gt;结束施工&lt;/font&gt;&lt;/p&gt;" style="rounded=1;whiteSpace=wrap;html=1;" vertex="1" parent="1">
          <mxGeometry x="294" y="840" width="120" height="30" as="geometry" />
        </mxCell>
      </root>
    </mxGraphModel>
  </diagram>
</mxfile>
